<svg width="24" height="24" xmlns="http://www.w3.org/2000/svg">

 <g>
  <title>background</title>
  <rect fill="none" id="canvas_background" height="402" width="582" y="-1" x="-1"/>
 </g>
 <g>
  <title>Layer 1</title>
  <path stroke="null" id="svg_1" d="m12.010792,0.020034a11.920297,12.261931 0 0 0 -11.920297,12.261931c0,5.419773 3.421125,10.017997 8.153483,11.648834c0.596015,0.098095 0.78674,-0.282024 0.78674,-0.613097c0,-0.282024 0,-1.054526 0,-2.072266c-3.301922,0.735716 -4.00522,-1.643099 -4.00522,-1.643099c-0.548334,-1.422384 -1.323153,-1.802504 -1.323153,-1.802504c-1.084747,-0.76024 0.083442,-0.735716 0.083442,-0.735716c1.19203,0.085834 1.823805,1.262979 1.823805,1.262979c1.037066,1.863813 2.78935,1.312027 3.468806,1.01774c0.107283,-0.797025 0.41721,-1.33655 0.750979,-1.643099c-2.646306,-0.306548 -5.423735,-1.361074 -5.423735,-6.03287c0,-1.361074 0.452971,-2.452386 1.227791,-3.322983c-0.119203,-0.306548 -0.536413,-1.581789 0.119203,-3.23715c0,0 1.001305,-0.331072 3.278082,1.250717c0.941703,-0.269762 1.966849,-0.404644 2.980074,-0.404644c1.013225,0 2.038371,0.134881 2.980074,0.404644c2.276777,-1.581789 3.278082,-1.250717 3.278082,-1.250717c0.655616,1.655361 0.238406,2.930601 0.119203,3.23715c0.774819,0.870597 1.227791,1.961909 1.227791,3.322983c0,4.684057 -2.78935,5.71406 -5.447576,6.020608c0.429131,0.38012 0.8225,1.128098 0.8225,2.268457c0,1.643099 0,2.967387 0,3.359769c0,0.331072 0.190725,0.723454 0.79866,0.613097c4.732358,-1.643099 8.141563,-6.229061 8.141563,-11.648834a11.920297,12.261931 0 0 0 -11.920297,-12.261931z"/>
 </g>
</svg>