<svg width="67" height="67" xmlns="http://www.w3.org/2000/svg">

 <g>
  <title>background</title>
  <rect fill="none" id="canvas_background" height="402" width="582" y="-1" x="-1"/>
 </g>
 <g>
  <title>Layer 1</title>
  <path stroke="null" id="svg_1" d="m52.233507,49.162515l0,-13.021977c0,-7.011834 -3.782967,-10.239503 -8.678572,-10.239503c-4.005495,0 -5.785715,2.225979 -6.787089,3.784164l0,-3.22767l-7.565935,0c0.111264,2.11468 0,22.704986 0,22.704986l7.565935,0l0,-12.68808c0,-0.667794 0,-1.335587 0.222527,-1.892082c0.556319,-1.335587 1.78022,-2.782474 3.894231,-2.782474c2.781594,0 3.782967,2.11468 3.782967,5.119752l0,12.131586l7.565935,0.111299zm-30.931322,-25.821357c2.67033,0 4.228022,-1.780783 4.228022,-3.895463c0,-2.225979 -1.668956,-3.895463 -4.228022,-3.895463s-4.228022,1.669484 -4.228022,3.895463s1.557692,3.895463 4.228022,3.895463zm12.239012,43.51789c-18.469782,0 -33.379125,-14.914059 -33.379125,-33.389685s14.909342,-33.389685 33.379125,-33.389685s33.379125,14.914059 33.379125,33.389685s-14.909342,33.389685 -33.379125,33.389685zm-8.456045,-17.696533l0,-22.704986l-7.565935,0l0,22.704986l7.565935,0z" fill="#007AB9"/>
 </g>
</svg>