<svg width="255" height="255" xmlns="http://www.w3.org/2000/svg">

 <g>
  <title>background</title>
  <rect fill="none" id="canvas_background" height="257" width="257" y="-1" x="-1"/>
 </g>
 <g>
  <title>Layer 1</title>
  <circle stroke="null" id="svg_1" r="127" cy="128.598919" cx="127.5" fill="#3B5998"/>
  <path stroke="null" id="svg_2" d="m169.785837,68.81723c0,0 -14.290638,0 -19.967637,0c-7.048217,0 -8.516538,2.846995 -8.516538,10.038c0,5.983955 0,17.373303 0,17.373303l28.484175,0l-2.740357,30.49834l-25.743818,0l0,91.112048l-36.898756,0l0,-90.725656l-19.189434,0l0,-30.884049l19.18874,0c0,0 0,-4.440437 0,-24.322215c0,-22.827251 12.37981,-34.745923 39.837478,-34.745923c4.497209,0 25.54684,0 25.54684,0l-0.000694,31.65615l0,0z" fill="#FFFFFF"/>
 </g>
</svg>